<?xml version="1.0" encoding="UTF-8"?>
<svg version="1.1" xmlns="http://www.w3.org/2000/svg" width="500" height="500">
<path d="M0 0 C2.91893524 2.02080132 3.81566079 3.18432913 4.59765625 6.64453125 C4.79681641 7.81048828 4.79681641 7.81048828 5 9 C12.17205358 8.95835385 19.34332971 8.88604985 26.51489258 8.79248047 C28.95427428 8.76426453 31.39374752 8.74305315 33.83325195 8.72900391 C37.34113448 8.7075839 40.84791571 8.66093565 44.35546875 8.609375 C45.99010323 8.60753204 45.99010323 8.60753204 47.65776062 8.60565186 C53.48136517 8.49314508 56.70549571 8.29924378 61 4 C64.5 3.5 64.5 3.5 68 4 C68.96498413 4.99012085 68.96498413 4.99012085 69.94946289 6.00024414 C74.77857159 9.16592876 79.6593741 8.5508776 85.30859375 8.49609375 C87.10781029 8.4982766 87.10781029 8.4982766 88.94337463 8.50050354 C91.47765534 8.49884503 94.01194617 8.48728926 96.54614258 8.46655273 C100.41987035 8.43763162 104.29222661 8.44593966 108.16601562 8.45898438 C110.63021497 8.45274579 113.09441 8.44435393 115.55859375 8.43359375 C116.71499863 8.43652939 117.8714035 8.43946503 119.06285095 8.44248962 C124.89012426 8.3743377 128.8915147 8.08239586 134 5 C137.93232882 5.23131346 139.69807955 5.7987197 143 8 C146.05384162 8.33018315 146.05384162 8.33018315 149.58276367 8.31884766 C150.24644455 8.32889328 150.91012543 8.3389389 151.59391785 8.34928894 C153.78525942 8.38015313 155.97647865 8.39716468 158.16796875 8.4140625 C159.68826859 8.43277159 161.20855801 8.45234481 162.72883606 8.4727478 C166.72856512 8.52410257 170.72832786 8.56371026 174.72821045 8.60089111 C178.8104284 8.64090988 182.89250586 8.6920119 186.97460938 8.7421875 C194.98297698 8.83898635 202.99141405 8.92337834 211 9 C211.20774048 8.06329468 211.20774048 8.06329468 211.41967773 7.10766602 C212.12436316 4.54832681 212.8783361 3.58037379 215 2 C218.04580823 1.37737622 220.9393391 1.48527764 224 2 C226.50160818 3.87620613 227.61945652 5.23891303 229 8 C229.4020782 10.94857345 229.51676809 13.08635401 228.0234375 15.7265625 C226.75 17.375 226.75 17.375 224 20 C222.68 20 221.36 20 220 20 C220.09788818 20.9276416 220.19577637 21.8552832 220.29663086 22.81103516 C220.9415048 33.58077124 218.01439806 39.82287136 211.5625 48.375 C204.24141125 58.2262189 204.24141125 58.2262189 202 70 C199.77172549 72.34872178 197.97624924 73.58925733 195.01489258 74.83520508 C192.50927599 76.28368402 191.58563676 77.74028281 190.07421875 80.19921875 C189.5325708 81.06716064 188.99092285 81.93510254 188.43286133 82.8293457 C187.85689209 83.77253662 187.28092285 84.71572754 186.6875 85.6875 C185.43622002 87.69613801 184.18357101 89.7039237 182.9296875 91.7109375 C182.28354492 92.74959961 181.63740234 93.78826172 180.97167969 94.85839844 C177.81667203 99.88547106 174.56610298 104.84888904 171.3125 109.8125 C170.05318958 111.73815319 168.79407131 113.66393206 167.53515625 115.58984375 C166.93590332 116.50620605 166.33665039 117.42256836 165.71923828 118.36669922 C161.89636301 124.22207165 158.10479112 130.09773315 154.31054688 135.97167969 C152.50232735 138.77024298 150.6921378 141.56752949 148.88183594 144.36474609 C147.9682633 145.77642565 147.05484911 147.18820776 146.14160156 148.60009766 C143.75323796 152.29237405 141.362595 155.98314965 138.96875 159.671875 C138.47181641 160.43822266 137.97488281 161.20457031 137.46289062 161.99414062 C136.51436062 163.45682708 135.56518159 164.91909293 134.61523438 166.38085938 C133.40373375 168.24987608 132.20010462 170.1236523 131 172 C130.42121094 172.90105469 129.84242188 173.80210937 129.24609375 174.73046875 C128.04311538 176.92147325 127.49458057 178.62051658 127.0625 181.0625 C126.22201533 184.74396176 125.12566382 186.70171778 122 189 C120.948125 189.2165625 120.948125 189.2165625 119.875 189.4375 C119.25625 189.623125 118.6375 189.80875 118 190 C117.74476563 190.66128906 117.48953125 191.32257813 117.2265625 192.00390625 C115.18251367 196.99685356 111.97737831 201.2896588 108.98828125 205.76171875 C108.50746094 206.49003906 108.02664062 207.21835937 107.53125 207.96875 C107.09361328 208.62294922 106.65597656 209.27714844 106.20507812 209.95117188 C104.69209749 212.40580421 104.69209749 212.40580421 103 217 C138.64 217 174.28 217 211 217 C211.66 215.68 212.32 214.36 213 213 C216.23176757 211.38411621 219.50615283 211.42548593 223 212 C225.99380345 213.99586897 227.63808488 215.38259171 228.44140625 218.97265625 C228.5625 221.0625 228.5625 221.0625 228 225 C227.33935547 225.52924072 226.67871094 226.05848145 225.99804688 226.60375977 C222.81042797 230.42664339 223.42846463 234.45189262 223.46875 239.27734375 C223.4649231 240.28084366 223.46109619 241.28434357 223.45715332 242.31825256 C223.45443326 244.43898523 223.461801 246.55975138 223.47851562 248.68041992 C223.4999009 251.92247597 223.47872805 255.16231028 223.453125 258.40429688 C223.4557687 260.46615072 223.46089454 262.52800318 223.46875 264.58984375 C223.46065308 265.55768295 223.45255615 266.52552216 223.44421387 267.52268982 C223.52150538 273.08672202 223.98317061 275.8504193 228 280 C228.70908329 284.41207383 228.55920183 286.22050654 225.9375 289.875 C222.42309156 292.41733802 220.32499429 293 216 293 C214.86489738 292.27087654 214.86489738 292.27087654 213.7068634 291.52702332 C210.33199516 289.62315832 208.05219639 289.60345266 204.19018555 289.56762695 C203.52621262 289.5574353 202.86223969 289.54724365 202.17814636 289.53674316 C199.99758365 289.50670435 197.81746086 289.49736171 195.63671875 289.48828125 C194.11927338 289.47142771 192.60184192 289.45327655 191.08442688 289.43388367 C187.10114893 289.38645048 183.11792737 289.35659816 179.13446045 289.33044434 C175.06543851 289.30060491 170.9966107 289.25408625 166.92773438 289.20898438 C158.95191845 289.12302737 150.97608471 289.05564855 143 289 C142.70746338 289.62447021 142.41492676 290.24894043 142.11352539 290.89233398 C140.75139035 293.47056503 139.51084332 294.53122403 137 296 C132.14276636 296.87667144 128.16665722 296.71427993 123.9375 294.125 C122 292 122 292 121 290 C114.68300117 289.89847218 108.36621321 289.82848121 102.04858398 289.78027344 C99.9000665 289.76017414 97.7516036 289.73289007 95.60327148 289.69824219 C92.51272095 289.64965087 89.42289445 289.62701421 86.33203125 289.609375 C85.37351761 289.58872986 84.41500397 289.56808472 83.42744446 289.54681396 C77.85073912 289.54494306 75.17025257 289.98612578 71 294 C66.7999048 294.44211528 63.54032822 294.45099646 60 292 C59.67 291.34 59.34 290.68 59 290 C35.24 289.67 11.48 289.34 -13 289 C-14.53266582 285.93466836 -14.10276471 282.73245728 -14.0625 279.375 C-14.05798828 278.66859375 -14.05347656 277.9621875 -14.04882812 277.234375 C-14.03703875 275.48954725 -14.01910324 273.744763 -14 272 C-14.62390625 271.71511719 -15.2478125 271.43023437 -15.890625 271.13671875 C-18.81708048 269.55968441 -19.65562606 268.02484138 -21 265 C-21.54223844 260.73955513 -21.30065535 258.57903994 -19.3125 254.75 C-16.94249304 251.93161334 -15.35142897 250.48086396 -12 249 C-10.42025391 249.05800781 -10.42025391 249.05800781 -8.80859375 249.1171875 C-2.6047943 247.29740633 -0.60827869 242.27635002 2.625 236.9375 C3.35562067 235.77046403 4.08884054 234.60505183 4.82446289 233.44116211 C6.40114919 230.94355928 7.96769466 228.43997928 9.52880859 225.93261719 C13.2900592 219.91783688 17.20451504 214.00320742 21.10894775 208.08084106 C22.43849379 206.06099023 23.7626821 204.03772327 25.08544922 202.01342773 C29.42579435 195.37844691 33.8125036 188.78203306 38.30078125 182.24609375 C39.55164146 180.41332546 40.80164343 178.57997421 42.05154419 176.74655151 C43.21672076 175.048499 44.39778332 173.36235389 45.57983398 171.67602539 C49.50692219 165.91747004 51.73507228 161.98445819 52 155 C53.79796824 152.64404162 55.06452369 151.34625737 57.84619141 150.31665039 C61.05060899 148.35774946 62.67801106 145.41491138 64.6484375 142.30859375 C65.0942215 141.62338654 65.54000549 140.93817932 65.9992981 140.23220825 C67.46674632 137.97292026 68.92099338 135.70545744 70.375 133.4375 C72.43132062 130.25549247 74.493115 127.07704409 76.5546875 123.8984375 C77.34495331 122.67680656 77.34495331 122.67680656 78.15118408 121.43049622 C81.84684927 115.73105624 85.62138036 110.09060083 89.4453125 104.4765625 C90.47223418 102.96301693 91.49909086 101.44942725 92.52587891 99.93579102 C94.00551467 97.75568649 95.48885135 95.57866029 96.98504639 93.40988159 C98.36586424 91.40695846 99.7311423 89.39424363 101.09375 87.37890625 C101.5071463 86.7887674 101.9205426 86.19862854 102.34646606 85.59060669 C103.61037362 83.76470913 103.61037362 83.76470913 105 81 C104.67 79.68 104.34 78.36 104 77 C71.33 76.67 38.66 76.34 5 76 C4.34 77.32 3.68 78.64 3 80 C1.375 81.8125 1.375 81.8125 -1 83 C-5.72924231 83 -7.89252499 82.94135376 -11.5 79.875 C-13.40479372 76.22414536 -13.5814173 74.06992108 -13 70 C-11.125 67.0625 -11.125 67.0625 -9 65 C-8.34 65 -7.68 65 -7 65 C-7.01626863 58.37918488 -7.0710282 51.75949085 -7.15258789 45.13916016 C-7.1757881 42.88695546 -7.19016832 40.63464196 -7.19555664 38.38232422 C-7.20483112 35.14481643 -7.24579056 31.90902482 -7.29296875 28.671875 C-7.2890361 27.66445251 -7.28510345 26.65703003 -7.28105164 25.61907959 C-7.25825014 19.95401158 -7.25825014 19.95401158 -10.48168945 15.54785156 C-11.31273193 15.03706055 -12.14377441 14.52626953 -13 14 C-14.14888518 10.05070721 -14.43129396 7.97041141 -12.75 4.1875 C-9.19971297 -0.25035879 -5.41400503 -0.88414195 0 0 Z M6 13 C10.6807341 16.74458728 15.1398825 19.49639577 20.375 22.3125 C21.6125 23.01342773 21.6125 23.01342773 22.875 23.72851562 C28.15642291 26.56623254 30.97418761 27.25354491 37 26 C39.9375 26.9375 39.9375 26.9375 42 28 C44.17595732 26.07212573 46.34054384 24.13370426 48.5 22.1875 C49.12003906 21.64029297 49.74007812 21.09308594 50.37890625 20.52929688 C50.96542969 19.99755859 51.55195313 19.46582031 52.15625 18.91796875 C52.70087891 18.43094482 53.24550781 17.9439209 53.80664062 17.44213867 C55.3187625 15.92676231 55.3187625 15.92676231 55 13 C38.83 13 22.66 13 6 13 Z M74 13 C73.01 14.98 72.02 16.96 71 19 C67.24241258 21.50505828 64.31887011 21.1492124 60 21 C56.02642822 20.57522829 56.02642822 20.57522829 53.74609375 22.86328125 C52.98425781 23.67152344 52.22242188 24.47976562 51.4375 25.3125 C50.29087891 26.51326172 50.29087891 26.51326172 49.12109375 27.73828125 C48.42113281 28.48464844 47.72117187 29.23101562 47 30 C46.0043859 31.00436675 45.00641006 32.00645141 44 33 C46.6816587 35.88310863 49.13900416 37.82106695 52.6484375 39.59375 C53.56093262 40.06095459 54.47342773 40.52815918 55.41357422 41.00952148 C56.39084473 41.50137939 57.36811523 41.9932373 58.375 42.5 C60.44883494 43.56201084 62.52172756 44.62586349 64.59375 45.69140625 C66.18316406 46.50762451 66.18316406 46.50762451 67.8046875 47.34033203 C72.86643855 49.96944142 77.873019 52.69678283 82.875 55.4375 C83.75849121 55.92089844 84.64198242 56.40429688 85.55224609 56.90234375 C86.39867676 57.36640625 87.24510742 57.83046875 88.1171875 58.30859375 C88.93026367 58.75058105 89.74333984 59.19256836 90.58105469 59.64794922 C92.23686042 60.57344903 93.87258031 61.53556371 95.48925781 62.52783203 C96.27913086 63.00462402 97.06900391 63.48141602 97.8828125 63.97265625 C98.58035645 64.409729 99.27790039 64.84680176 99.99658203 65.29711914 C100.98827393 65.64504517 100.98827393 65.64504517 102 66 C103.34343929 65.35394033 104.67542566 64.68390427 106 64 C107.5026971 63.61855547 109.00785434 63.24669169 110.51513672 62.88378906 C113.10761198 62.03053241 114.59894273 61.50845139 116.300354 59.35144043 C117.30431659 57.21814341 118.0550134 55.10991772 118.7578125 52.859375 C119.03599823 52.0589679 119.31418396 51.25856079 119.60079956 50.43389893 C120.18000708 48.7449598 120.7421563 47.05008518 121.28808594 45.35009766 C122.12211931 42.75894964 123.00881577 40.19088486 123.90625 37.62109375 C124.46412929 35.97243077 125.01892164 34.32271934 125.5703125 32.671875 C125.96224289 31.52619049 125.96224289 31.52619049 126.36209106 30.35736084 C128.36236977 24.03941693 127.60571348 19.42285393 126 13 C108.84 13 91.68 13 74 13 Z M145 13 C146.10486871 18.52434356 146.80987982 19.22612812 150.875 22.75 C151.61484131 23.3989624 151.61484131 23.3989624 152.36962891 24.06103516 C156.52408172 27.67687445 160.81968315 31.12006623 165.10546875 34.578125 C168.39569512 37.33108094 171.54630323 40.2047146 174.6875 43.125 C175.24203857 43.63635498 175.79657715 44.14770996 176.36791992 44.67456055 C178.70909414 46.83922739 181.01230978 49.01250212 183.25 51.28515625 C187.66543152 55.62046905 190.87800042 56.81203917 197.09375 57.02734375 C197.7228125 57.01832031 198.351875 57.00929687 199 57 C200.63728958 54.71516503 202.25150047 52.41815505 203.84375 50.1015625 C205.351799 47.93237608 206.88247784 45.81978998 208.46875 43.7109375 C213.77399374 36.41297723 215.9894617 31.18596348 215.609375 21.86328125 C214.95118655 18.77063937 214.33244723 17.9897939 212 16 C211.505 14.515 211.505 14.515 211 13 C189.22 13 167.44 13 145 13 Z M-2 18 C-2 33.18 -2 48.36 -2 64 C-0.68 64.33 0.64 64.66 2 65 C5.11709747 62.92193502 7.63371473 60.16771911 10.31640625 57.56152344 C12.24308681 55.7745384 14.25224044 54.11505543 16.28125 52.4453125 C17.77120174 51.17230607 19.2607847 49.89886787 20.75 48.625 C21.86036621 47.74424805 21.86036621 47.74424805 22.99316406 46.84570312 C26.00011593 44.20050058 27.78491531 42.35704065 28.42382812 38.32592773 C28.06622952 33.7028582 27.13225949 30.98459341 23.58886719 27.90332031 C20.46729948 25.98512467 17.3131833 24.37557438 14 22.8125 C12.88109375 22.24208984 11.7621875 21.67167969 10.609375 21.08398438 C4.49621596 17.35780846 4.49621596 17.35780846 -2 18 Z M137.07421875 21.625 C131.75915545 24.12057819 130.16311654 27.83888939 128.14453125 33.0625 C127.26403016 35.51298218 126.43382605 37.97189311 125.63647461 40.45068359 C124.81848537 42.9814817 123.93774986 45.48303994 123.04492188 47.98828125 C120.25158619 56.09897228 118.15861815 62.99426491 119.67456055 71.65234375 C120.0207927 74.14999444 119.98105949 75.67741229 119 78 C117.515 78.495 117.515 78.495 116 79 C115.9079751 85.85939432 116.23271451 92.6033356 116.8125 99.4375 C116.88275391 100.42943359 116.95300781 101.42136719 117.02539062 102.44335938 C117.10595703 103.38888672 117.18652344 104.33441406 117.26953125 105.30859375 C117.33760986 106.16251709 117.40568848 107.01644043 117.47583008 107.89624023 C117.84462576 110.38265952 117.84462576 110.38265952 121 112 C125.34706027 111.44262993 128.59280278 108.7947071 132.125 106.375 C133.24334229 105.61872314 133.24334229 105.61872314 134.38427734 104.84716797 C136.16532254 103.64198831 137.94461662 102.43421886 139.72265625 101.22460938 C142.88472096 99.0782496 146.05307657 96.94156644 149.22366333 94.80783081 C152.26020076 92.76422424 155.2952368 90.71839496 158.33001709 88.67218018 C159.84978494 87.64761713 161.36984133 86.62348193 162.89019775 85.59979248 C167.03825768 82.80520831 171.17782333 79.99909272 175.29989624 77.16629028 C176.79023739 76.14389951 178.28683393 75.13063959 179.78442383 74.11889648 C183.54256599 71.75176121 183.54256599 71.75176121 185.43383789 67.98413086 C185.47984174 65.53249336 185.47984174 65.53249336 185 62 C185.33 61.01 185.66 60.02 186 59 C178.78479075 52.18505053 171.55605245 45.5262845 163.796875 39.328125 C159.9134933 36.09558939 156.24119247 32.65082373 152.58959961 29.15991211 C151.08647924 27.74031161 149.54797081 26.37030999 148 25 C147.08863281 24.14019531 146.17726563 23.28039062 145.23828125 22.39453125 C141.73867663 20.88746388 140.68339648 20.77005081 137.07421875 21.625 Z M40.8125 41.4375 C38 43 38 43 34.6953125 43.24609375 C30.12927937 44.17764174 28.06134502 46.28949881 25.0625 49.625 C24.02150767 50.72583069 22.97853934 51.82479617 21.93359375 52.921875 C21.43327637 53.45361328 20.93295898 53.98535156 20.41748047 54.53320312 C18.58249597 56.43202967 16.63406247 58.16286231 14.625 59.875 C11.23444597 62.7832158 8.00856629 65.69057709 5 69 C5 69.99 5 70.98 5 72 C37.01 72 69.02 72 102 72 C99.35266811 69.35266811 97.68661344 68.14956305 94.44921875 66.50390625 C93.53350098 66.033479 92.6177832 65.56305176 91.67431641 65.07836914 C90.68866699 64.57813232 89.70301758 64.07789551 88.6875 63.5625 C80.44599552 59.32417994 72.2537279 55.01359625 64.125 50.5625 C63.24158936 50.07918213 62.35817871 49.59586426 61.44799805 49.09790039 C54.66962899 45.38131296 54.66962899 45.38131296 51.44042969 43.54248047 C50.63250977 43.08373535 49.82458984 42.62499023 48.9921875 42.15234375 C47.91106689 41.53153931 47.91106689 41.53153931 46.80810547 40.89819336 C44.07831617 39.54214491 43.38170557 39.74916491 40.8125 41.4375 Z M179.5 79.25 C174.77340524 82.74780179 169.9673345 86.07010401 165.0625 89.3125 C156.6871911 94.85545854 148.36930307 100.48016572 140.0625 106.125 C139.43650909 106.55036041 138.81051819 106.97572083 138.16555786 107.41397095 C137.24551468 108.0391713 137.24551468 108.0391713 136.30688477 108.67700195 C135.71351318 109.08021164 135.1201416 109.48342133 134.50878906 109.89884949 C132.88073944 111.00534961 131.25298264 112.11228053 129.62524414 113.21923828 C127.75556054 114.48748641 125.87980217 115.74679855 124 117 C123.03355976 118.91581104 123.03355976 118.91581104 122.375 121.0625 C121.07629428 124.92370572 121.07629428 124.92370572 120 126 C120.08569785 141.33991569 122.34716843 156.76378502 124 172 C126.62355077 168.79506381 129.03278768 165.55307288 131.28515625 162.078125 C131.89246582 161.14395752 132.49977539 160.20979004 133.12548828 159.24731445 C133.76470215 158.25820068 134.40391602 157.26908691 135.0625 156.25 C135.73007324 155.22156982 136.39764648 154.19313965 137.08544922 153.13354492 C139.0596664 150.09076908 141.03032839 147.04571971 143 144 C143.99080227 142.46999824 144.98167863 140.94004445 145.97265625 139.41015625 C147.73575181 136.68708567 149.49718396 133.9629474 151.2578125 131.23828125 C154.87865538 125.6377445 158.51679292 120.04845252 162.15356445 114.45825195 C164.77073009 110.43409184 167.38467653 106.40794999 169.98828125 102.375 C170.46096436 101.64289307 170.93364746 100.91078613 171.4206543 100.15649414 C172.3353355 98.73930784 173.24957423 97.32183585 174.16333008 95.90405273 C177.57549175 90.62183109 181.07792622 85.40751029 184.63671875 80.22265625 C186.17428102 78.15043013 186.17428102 78.15043013 186 76 C183.06327845 76 181.83152077 77.47977127 179.5 79.25 Z M110 82 C108.93433106 83.4933336 107.9188632 85.02246427 106.921875 86.5625 C106.26541992 87.5719165 105.60896484 88.58133301 104.93261719 89.62133789 C104.20501139 90.74751548 103.47747432 91.87373748 102.75 93 C101.60966037 94.75787268 100.46814363 96.5149768 99.32647705 98.27198792 C98.51420551 99.5220959 97.70232625 100.77245885 96.89080811 102.02305603 C93.74011912 106.87453824 90.56242392 111.70774668 87.375 116.53515625 C86.42997757 117.96807558 85.48499043 119.40101818 84.54003906 120.83398438 C83.15620081 122.93231415 81.77149612 125.03003976 80.38366699 127.12573242 C75.6532414 134.2712261 70.96015364 141.38738997 67 149 C74.27359947 146.4930841 80.53927626 141.68255894 86.90356445 137.46191406 C88.51087113 136.40308226 90.12587708 135.35584742 91.74829102 134.3203125 C94.09670627 132.82052425 96.41875429 131.28616976 98.73828125 129.7421875 C99.46630447 129.28665497 100.1943277 128.83112244 100.94441223 128.36178589 C104.70362821 125.90899537 104.70362821 125.90899537 106.40145874 121.96246338 C106.37753209 119.97061928 106.19494905 117.98242535 106 116 C107.70440524 112.07986796 109.20155914 110.74226007 113 109 C113.28994872 99.86661545 112.1741788 91.03698325 111 82 C110.67 82 110.34 82 110 82 Z M101.28515625 131.890625 C100.18511513 132.64215851 100.18511513 132.64215851 99.06285095 133.40887451 C96.72179035 135.01182006 94.39212905 136.63049752 92.0625 138.25 C90.49878213 139.32528876 88.93433618 140.39951956 87.36914062 141.47265625 C84.48245497 143.45339345 81.60048855 145.4406434 78.72290039 147.43457031 C75.50570365 149.66003691 72.26199223 151.84078265 69 154 C69.33 156.64 69.66 159.28 70 162 C75.36356218 163.74656413 80.73807019 165.45164338 86.12841797 167.11376953 C88.06394784 167.71111466 89.99784578 168.3137702 91.93017578 168.92138672 C94.84196849 169.82833854 97.76251279 170.69916903 100.6875 171.5625 C101.5945166 171.85012207 102.5015332 172.13774414 103.43603516 172.43408203 C109.74129402 174.24408693 113.09582021 173.90741333 119 171 C118.51635834 161.40353134 117.87777294 151.82427184 117.0625 142.25 C116.98789551 141.3101123 116.91329102 140.37022461 116.83642578 139.40185547 C116.44162412 134.93954707 116.0422917 131.06749309 114 127 C108.6247589 126.1857469 105.47358478 128.95157803 101.28515625 131.890625 Z M65.21359253 167.0181427 C62.66578956 168.14824181 61.31813215 168.01676625 58.58251953 167.7097168 C54.56561481 167.63432606 54.2520248 167.75772142 51.14013672 170.74926758 C50.28769754 172.02672236 49.46939569 173.32737361 48.6796875 174.64453125 C48.22187897 175.34897873 47.76407043 176.05342621 47.29238892 176.77922058 C45.78983994 179.10584336 44.33333804 181.45796333 42.875 183.8125 C41.83453091 185.44016939 40.7908626 187.06579778 39.74414062 188.68945312 C37.56932623 192.07096519 35.41114685 195.46226412 33.26464844 198.86181641 C28.60370198 206.2253738 23.78719015 213.48595356 18.98150635 220.75546265 C16.63509684 224.31036054 14.30261814 227.87436197 11.96875 231.4375 C7.67940625 237.98092987 3.35275245 244.49857625 -1 251 C1.89654449 252.3499146 1.89654449 252.3499146 4.13110352 250.99047852 C4.95537842 250.45865967 5.77965332 249.92684082 6.62890625 249.37890625 C7.56798828 248.78142578 8.50707031 248.18394531 9.47460938 247.56835938 C10.49361328 246.90642578 11.51261719 246.24449219 12.5625 245.5625 C14.75063299 244.16691912 16.93945862 242.77242376 19.12890625 241.37890625 C19.69429108 241.01721344 20.2596759 240.65552063 20.8421936 240.28286743 C26.84686084 236.44376912 32.92135824 232.72060724 39 229 C50.35970191 222.02567926 61.67120881 214.97677469 72.96630859 207.8984375 C76.14813758 205.90729777 79.33341951 203.92177877 82.51953125 201.9375 C83.59380371 201.2679126 84.66807617 200.5983252 85.77490234 199.90844727 C87.81495369 198.63707668 89.85560008 197.36666018 91.89697266 196.09741211 C97.66767923 192.49809512 103.36643634 188.81055604 109 185 C108.505 181.535 108.505 181.535 108 178 C102.32221922 176.28927233 96.64390772 174.58032223 90.96508789 172.87304688 C89.03167106 172.29150944 87.09840245 171.70947899 85.1652832 171.12695312 C82.39312566 170.29168352 79.62044694 169.45816502 76.84765625 168.625 C75.97786636 168.36251465 75.10807648 168.1000293 74.21192932 167.82958984 C69.60885823 166.00696659 69.60885823 166.00696659 65.21359253 167.0181427 Z M111 189 C109.26066273 189.78578098 109.26066273 189.78578098 107.38671875 191.0703125 C106.273573 191.78634644 106.273573 191.78634644 105.13793945 192.5168457 C104.32929443 193.04753662 103.52064941 193.57822754 102.6875 194.125 C100.94595244 195.2470876 99.20374195 196.36814682 97.4609375 197.48828125 C96.55698242 198.07174316 95.65302734 198.65520508 94.72167969 199.25634766 C90.45012116 201.99293458 86.13214147 204.65270934 81.8125 207.3125 C74.2956247 211.95248621 66.79874602 216.6232726 59.3125 221.3125 C50.7709274 226.65922329 42.20772124 231.96957935 33.625 237.25 C32.543396 237.91563965 31.46179199 238.5812793 30.34741211 239.26708984 C25.36046562 242.33253377 20.36783953 245.38779432 15.359375 248.41796875 C14.51036621 248.93262695 13.66135742 249.44728516 12.78662109 249.97753906 C11.21861725 250.92678618 9.64872598 251.87292496 8.07666016 252.81542969 C6.36786206 253.85005512 4.68090974 254.92065615 3 256 C3 256.33 3 256.66 3 257 C13.74405066 256.45791252 24.22328436 254.20547361 34.76171875 252.18359375 C36.76373273 251.80342222 38.76583487 251.42371469 40.76802063 251.04444885 C46.00486441 250.05117733 51.24049634 249.05165819 56.47589111 248.05078125 C61.83150953 247.028085 67.18826363 246.01137374 72.54492188 244.99414062 C83.03106057 243.00191096 93.51592732 241.00307146 104 239 C102.35 235.7 100.7 232.4 99 229 C97.7625 229.0825 96.525 229.165 95.25 229.25 C92.16322163 229.23907335 91.21230491 229.14153661 88.5625 227.375 C86.62768868 224.4340868 86.07190807 222.52349544 86 219 C87.23464526 216.14082151 88.29047357 214.513795 90.8125 212.6875 C93 212 93 212 95.90869141 212.2578125 C99.10748704 212.33138402 99.10748704 212.33138402 100.96630859 209.98046875 C101.7989624 208.59794922 101.7989624 208.59794922 102.6484375 207.1875 C103.26074219 206.19492187 103.87304688 205.20234375 104.50390625 204.1796875 C105.12136719 203.13039063 105.73882812 202.08109375 106.375 201 C107.01566406 199.95070313 107.65632813 198.90140625 108.31640625 197.8203125 C109.89739624 195.22465729 111.45716416 192.61845262 113 190 C112.01 189.505 112.01 189.505 111 189 Z M107 222 C114.2541011 227.44057583 120.55806153 231.92616284 129.90625 231.015625 C132 231 132 231 135 233 C137.46319879 232.95061775 137.46319879 232.95061775 140.29296875 232.3828125 C141.4536084 232.18204102 142.61424805 231.98126953 143.81005859 231.77441406 C145.20688758 231.51726191 146.60351896 231.25903505 148 231 C149.69739431 230.69219482 151.39482496 230.38459006 153.09228516 230.07714844 C158.83605231 229.02932787 164.57434647 227.95306299 170.3125 226.875 C172.3248343 226.49850816 174.33720384 226.12220462 176.34960938 225.74609375 C181.23348168 224.83289839 186.11687079 223.91716021 191 223 C191 222.67 191 222.34 191 222 C163.28 222 135.56 222 107 222 Z M201.36303711 225.0480957 C200.68160141 225.17153351 200.00016571 225.29497131 199.29808044 225.42214966 C197.03986162 225.83322101 194.78360421 226.25410276 192.52734375 226.67578125 C190.96324095 226.96421023 189.3990769 227.25230721 187.83485413 227.54008484 C184.55466805 228.14523746 181.27546372 228.75541169 177.99682617 229.36889648 C173.78616443 230.1562138 169.57307243 230.92954438 165.35910702 231.69895649 C162.12815186 232.29072993 158.8987455 232.89062489 155.66974068 233.4929409 C154.11643806 233.78150819 152.56262436 234.06733785 151.00831413 234.35042763 C148.8397384 234.74649938 146.67352587 235.15360712 144.50756836 235.5637207 C142.65463417 235.90799858 142.65463417 235.90799858 140.76426697 236.25923157 C139.39595482 236.62591194 139.39595482 236.62591194 138 237 C137.67 237.66 137.34 238.32 137 239 C140.8321516 241.08551242 144.66593252 243.1680122 148.5 245.25 C149.57765625 245.83652344 150.6553125 246.42304688 151.765625 247.02734375 C157.46452092 250.12003727 163.17796544 253.14550733 169 256 C169.53141602 255.59386475 170.06283203 255.18772949 170.61035156 254.76928711 C183.68950928 244.77787487 196.81625768 234.85299995 210 225 C206.96028374 223.48014187 204.67849004 224.43887807 201.36303711 225.0480957 Z M103 226 C104.29358794 229.23396985 105.40282267 231.88479853 107.125 234.8125 C108.053125 236.3903125 108.053125 236.3903125 109 238 C112.3 237.34 115.6 236.68 119 236 C119 235.34 119 234.68 119 234 C113.72 231.36 108.44 228.72 103 226 Z M211.08154297 228.8359375 C210.17106201 229.59777344 210.17106201 229.59777344 209.2421875 230.375 C208.54287109 230.94178467 207.84355469 231.50856934 207.12304688 232.0925293 C206.38119141 232.72199463 205.63933594 233.35145996 204.875 234 C203.28080743 235.30083066 201.684375 236.59892023 200.0859375 237.89453125 C199.25803711 238.57080566 198.43013672 239.24708008 197.57714844 239.94384766 C192.53047277 243.97028783 187.26429799 247.70499619 182.01904297 251.46679688 C180.88039795 252.2934082 180.88039795 252.2934082 179.71875 253.13671875 C179.04779297 253.61842529 178.37683594 254.10013184 177.68554688 254.59643555 C175.74099507 256.08036018 175.74099507 256.08036018 174 259 C175.45178515 259.79303788 176.9036189 260.58598681 178.35546875 261.37890625 C179.28246582 261.88526611 180.20946289 262.39162598 181.16455078 262.91333008 C183.18413842 264.0151161 185.20465154 265.11520736 187.22607422 266.21362305 C191.57305491 268.57638686 195.9174222 270.93862346 200.21484375 273.390625 C201.34019531 274.02484375 202.46554687 274.6590625 203.625 275.3125 C204.58664062 275.86550781 205.54828125 276.41851562 206.5390625 276.98828125 C208.87036691 278.16015182 208.87036691 278.16015182 211.0234375 277.85546875 C211.67570312 277.57316406 212.32796875 277.29085937 213 277 C213.8556958 276.69191406 214.7113916 276.38382812 215.59301758 276.06640625 C218.14069073 274.29666246 218.14069073 274.29666246 218.43920898 272.0271759 C218.58121711 269.36565399 218.56089136 266.74644673 218.48828125 264.08203125 C218.47766914 262.62345955 218.47766914 262.62345955 218.46684265 261.13542175 C218.43883408 258.02700138 218.37608275 254.92037666 218.3125 251.8125 C218.28742553 249.70640621 218.26461088 247.6002842 218.24414062 245.49414062 C218.18898599 240.32873429 218.10266795 235.16467165 218 230 C214.63161968 228.13740821 214.63161968 228.13740821 211.08154297 228.8359375 Z M111 242 C111.49628906 242.99257813 111.99257813 243.98515625 112.50390625 245.0078125 C112.8285083 245.6587085 113.15311035 246.30960449 113.48754883 246.98022461 C114.20980039 248.42128298 114.93759661 249.85957451 115.6706543 251.29516602 C117.48592955 254.86787011 119.20971806 258.42444381 120.703125 262.14453125 C122.17511307 265.69060319 123.65268822 268.92548183 126 272 C129.04675961 273.09370858 131.23427439 273.22147589 134.44921875 272.98046875 C137.58708306 273.00449528 138.71779016 273.93158031 141 276 C144.12638859 274.54890729 146.78276479 272.79659374 149.546875 270.7421875 C150.39121094 270.11699219 151.23554688 269.49179687 152.10546875 268.84765625 C152.97816406 268.19667969 153.85085938 267.54570312 154.75 266.875 C155.63816406 266.21628906 156.52632812 265.55757813 157.44140625 264.87890625 C159.62967096 263.25535501 161.81576909 261.62897174 164 260 C159.96494465 255.48863692 154.29983105 253.05899163 149.0625 250.1875 C147.96486328 249.56423828 146.86722656 248.94097656 145.73632812 248.29882812 C144.67994141 247.71939453 143.62355469 247.13996094 142.53515625 246.54296875 C141.08701538 245.7389563 141.08701538 245.7389563 139.60961914 244.91870117 C137.06515353 243.71720851 137.06515353 243.71720851 134.77905273 244.77856445 C134.19196533 245.18163818 133.60487793 245.58471191 133 246 C129.90826248 247.54586876 127.40570448 247.29359521 124 247 C121.63502561 245.13291495 120.33969285 243.67938569 119 241 C116.16032769 241 113.76264289 241.40267181 111 242 Z M91.57568359 245.54125977 C90.1626722 245.7877401 90.1626722 245.7877401 88.72111511 246.03919983 C78.9221603 247.75618633 69.13293556 249.52885426 59.34472656 251.3059082 C54.6974529 252.14779083 50.04758133 252.97215822 45.39453125 253.78149414 C39.77503315 254.75906273 34.16175347 255.76681606 28.55159378 256.79658318 C26.41244371 257.18396178 24.27132213 257.5606111 22.12836838 257.92636299 C19.13463794 258.43959902 16.15049795 258.99133364 13.16552734 259.55297852 C11.83295647 259.76769806 11.83295647 259.76769806 10.47346497 259.98675537 C6.02679122 260.75839898 6.02679122 260.75839898 2.81486893 263.6488781 C1.86452288 265.7625536 1.86452288 265.7625536 1 269 C-1.45734862 272.5631555 -4.93538872 273.00301988 -9 274 C-9 277.63 -9 281.26 -9 285 C13.11 285 35.22 285 58 285 C58.99 282.69 59.98 280.38 61 278 C64.19000995 276.40499503 67.52880059 276.62119848 71 277 C75.10261791 279.05130896 75.16966339 280.42415848 77 285 C91.19 285 105.38 285 120 285 C120.66 282.36 121.32 279.72 122 277 C122.33 276.34 122.66 275.68 123 275 C122.03835849 272.76906794 121.02060944 270.67334812 119.88671875 268.53125 C119.55710648 267.89513794 119.2274942 267.25902588 118.88789368 266.6036377 C118.18791535 265.2567352 117.48403855 263.91185276 116.77661133 262.56884766 C115.69420593 260.51273841 114.62447495 258.45042626 113.55664062 256.38671875 C112.87574074 255.08034282 112.19412354 253.77434046 111.51171875 252.46875 C111.19079758 251.85100708 110.8698764 251.23326416 110.53923035 250.59680176 C109.20249993 248.06777198 108.03581392 246.03581392 106 244 C101.18498334 243.47656587 96.30459192 244.70002283 91.57568359 245.54125977 Z M163.31640625 265.4296875 C162.38892578 266.14253906 161.46144531 266.85539062 160.50585938 267.58984375 C159.53455078 268.34394531 158.56324219 269.09804688 157.5625 269.875 C155.64767398 271.35226085 153.73233187 272.82885305 151.81640625 274.3046875 C150.96506104 274.96452637 150.11371582 275.62436523 149.23657227 276.30419922 C147.53413009 277.595015 145.77765257 278.81489829 144 280 C144.33 281.65 144.66 283.3 145 285 C166.12 285 187.24 285 209 285 C209 284.34 209 283.68 209 283 C208.20940186 282.57702637 207.41880371 282.15405273 206.60424805 281.71826172 C203.6164296 280.11949187 200.6288258 278.52032225 197.64135742 276.92089844 C196.35856302 276.23421954 195.075688 275.54769122 193.79272461 274.86132812 C191.92799994 273.86369678 190.06360556 272.86545007 188.19921875 271.8671875 C187.58891815 271.54095398 186.97861755 271.21472046 186.349823 270.87860107 C181.56556545 268.31666032 176.81735287 265.69276821 172.08520508 263.03564453 C168.04857612 261.03079966 166.65278242 262.84923622 163.31640625 265.4296875 Z " fill="#00BF62" transform="translate(146,102)"/>
</svg>
